# xmcd
#
# Track frame offsets:
#	150
#	19456
#	42633
#	58137
#	80009
#	103800
#	122310
#	149007
#	169416
#	192548
#	207708
#
# Disc length: 3131 seconds
#
# Revision: 1
# Processed by: cddbd v1.5.2PL0 Copyright (c) Steve Scherf et al.
# Submitted via: EasyCDDAExtractor 9.0.0.1
#
DISCID=b40c390b
DTITLE=Kiss - Scandinavium Gothenburg 27-10-84 Disc 1
DYEAR=1984
DGENRE=Hard Rock
TTITLE0=Detroit Rock City 
TTITLE1=Cold Gin
TTITLE2=Strutter
TTITLE3=Heaven's On Fire
TTITLE4=Paul Stanley Guitar Solo - Under The Gun
TTITLE5=War Machine
TTITLE6=Eric Carr Drum Solo 
TTITLE7=Young And Wasted 
TTITLE8=Creatures Of The Night
TTITLE9=Gene Simmons Bass Solo - I Love It Loud
TTITLE10=I Still Love You
EXTD=
EXTT0=
EXTT1=
EXTT2=
EXTT3=
EXTT4=
EXTT5=
EXTT6=
EXTT7=
EXTT8=
EXTT9=
EXTT10=
PLAYORDER=
